PathFileType	4	(X/Y/Z)	C:\Users\86182\Documents\cortex\Trimmed_M1_L8.trc
DataRate	CameraRate	NumFrames	NumMarkers	Units	OrigDataRate	OrigDataStartFrame	OrigNumFrames
100.00	100.00	       115	2	mm	100.00	1	       951
Frame#	Time	gripper			box			
		X1	Y1	Z1	X2	Y2	Z2	

1	0.000	199.59401	194.17139	192.92984	202.72308	193.18944	57.86871	
2	0.010	199.59711	194.16177	192.91473	202.69186	193.14110	57.87156	
3	0.020	199.61201	194.16156	192.91739	202.71710	193.17369	57.86284	
4	0.030	199.60490	194.16005	192.88948	202.71138	193.16965	57.86001	
5	0.040	199.61415	194.16200	192.92479	202.67638	193.17099	57.89387	
6	0.050	199.59908	194.16495	192.91100	202.69727	193.15430	57.86074	
7	0.060	199.60052	194.16978	192.92285	202.70586	193.15767	57.86889	
8	0.070	199.59392	194.15863	192.90150	202.71999	193.17436	57.86623	
9	0.080	199.58871	194.15802	192.91026	202.71252	193.17746	57.86997	
10	0.090	199.56523	194.15706	192.91229	202.71150	193.16434	57.86783	
11	0.100	199.57295	194.15477	192.92252	202.67766	193.13649	57.85675	
12	0.110	199.58734	194.15836	192.94273	202.70586	193.15767	57.86889	
13	0.120	199.59590	194.17148	192.91731	202.71150	193.16434	57.86783	
14	0.130	199.58289	194.17978	192.95490	202.71255	193.17615	57.87190	
15	0.140	199.59135	194.16100	192.91797	202.72284	193.17772	57.86569	
16	0.150	199.60519	194.16284	192.90439	202.71999	193.17436	57.86623	
17	0.160	199.61188	194.16631	192.90688	202.68208	193.14549	57.87980	
18	0.170	199.60789	194.17322	192.91629	202.68095	193.17108	57.88086	
19	0.180	199.58420	194.15475	192.90207	202.69264	193.15942	57.86589	
20	0.190	199.60278	194.16548	192.94061	202.71196	193.17287	57.86595	
21	0.200	199.62531	194.16849	192.92226	202.71432	193.16766	57.86730	
22	0.210	199.59268	194.15515	192.90356	202.69452	193.14969	57.86322	
23	0.220	199.60513	194.16066	192.92415	202.70299	193.15834	57.86357	
24	0.230	199.61131	194.17140	192.92535	202.68892	193.14305	57.86430	
25	0.240	199.62128	194.17537	192.93153	202.72284	193.17772	57.86569	
26	0.250	199.60159	194.17508	192.94305	202.68863	193.16389	57.88288	
27	0.260	199.62402	194.16331	192.91640	202.68115	193.13641	57.87183	
28	0.270	199.61342	194.15712	192.90392	202.72284	193.17772	57.86569	
29	0.280	199.61392	194.16164	192.90477	202.67215	193.12726	57.86168	
30	0.290	199.60808	194.16322	192.90277	202.71211	193.18594	57.86703	
31	0.300	199.58653	194.18483	192.91965	202.72054	193.18028	57.86827	
32	0.310	199.59331	194.18585	192.92726	202.70831	193.18854	57.87719	
33	0.320	199.60477	194.17535	192.92711	202.69565	193.15614	57.87511	
34	0.330	199.59962	194.17694	192.91615	202.69745	193.14771	57.87049	
35	0.340	199.57948	194.15927	192.92557	202.68887	193.20490	57.89419	
36	0.350	199.62029	194.16769	192.91653	202.69330	193.15874	57.87770	
37	0.360	199.58395	194.19067	192.93144	202.70026	193.15103	57.86996	
38	0.370	199.60835	194.18581	192.94942	202.69975	193.18251	57.87293	
39	0.380	199.62105	194.16528	192.91275	202.72284	193.17772	57.86569	
40	0.390	199.57486	194.16560	192.93001	202.70567	193.16562	57.85720	
41	0.400	199.57077	194.17323	192.96088	202.70125	193.16278	57.87403	
42	0.410	199.61691	194.16714	192.91267	202.71422	193.17165	57.86144	
43	0.420	199.60721	194.16110	192.93155	202.68892	193.14305	57.86430	
44	0.430	199.58762	194.17061	192.94200	202.71150	193.16434	57.86783	
45	0.440	199.57253	194.15533	192.93112	202.66643	193.12994	57.84921	
46	0.450	199.57785	194.17166	192.94510	202.70306	193.15433	57.86944	
47	0.460	199.57327	194.17612	192.96831	202.72284	193.17772	57.86569	
48	0.470	199.60405	194.16710	192.91759	202.68611	193.14110	57.86288	
49	0.480	199.58539	194.16063	192.95000	202.71999	193.17436	57.86623	
50	0.490	199.58470	194.16243	192.93887	202.70868	193.16100	57.86836	
51	0.500	199.59615	194.17444	192.93884	202.71422	193.17165	57.86144	
52	0.510	199.58997	194.16562	192.91103	202.72284	193.17772	57.86569	
53	0.520	199.60248	194.15341	192.90067	202.69432	193.15761	57.85157	
54	0.530	199.59163	194.18559	192.92535	202.70868	193.16100	57.86836	
55	0.540	199.59552	194.16049	192.91895	202.69458	193.14703	57.86715	
56	0.550	199.56940	194.15140	192.93854	202.70567	193.16562	57.85720	
57	0.560	199.59816	194.16718	192.93513	202.71150	193.16434	57.86783	
58	0.570	199.59781	194.18071	192.93114	202.69174	193.14639	57.86377	
59	0.580	199.61568	194.16090	192.91289	202.70735	193.17537	57.87504	
60	0.590	199.60847	194.16862	192.93221	202.69656	193.16797	57.87924	
61	0.600	199.59398	194.16414	192.90521	202.68330	193.13911	57.86149	
62	0.610	199.58572	194.18018	192.95331	202.71150	193.16434	57.86783	
63	0.620	199.63438	194.16750	192.92807	202.69876	193.17201	57.86689	
64	0.630	199.59842	194.16969	192.92245	202.70107	193.17073	57.86234	
65	0.640	199.61847	194.16232	192.90512	202.73018	193.18767	57.86249	
66	0.650	199.59132	194.15266	192.89940	202.69727	193.15430	57.86074	
67	0.660	199.59702	194.15840	192.91321	202.72284	193.17772	57.86569	
68	0.670	199.56525	194.14929	192.91547	202.67969	193.15073	57.87855	
69	0.680	199.56122	194.15738	192.91136	202.66104	193.11813	57.85802	
70	0.690	199.59389	194.15785	192.92226	202.70586	193.15767	57.86889	
71	0.700	199.62372	194.17326	192.92973	202.66429	193.14864	57.88793	
72	0.710	199.60583	194.16940	192.92024	202.70576	193.16164	57.86303	
73	0.720	199.61694	194.17166	192.91441	202.70868	193.16100	57.86836	
74	0.730	199.62111	194.16426	192.91888	202.68547	193.13440	57.87155	
75	0.740	199.58684	194.17416	192.91933	202.72284	193.17772	57.86569	
76	0.750	199.58136	194.18178	192.93356	202.72284	193.17772	57.86569	
77	0.760	199.60248	194.18005	192.94344	202.69179	193.14508	57.86573	
78	0.770	199.61679	194.16203	192.90315	202.71432	193.16766	57.86730	
79	0.780	199.61404	194.16675	192.91429	202.68073	193.12793	57.87366	
80	0.790	199.61459	194.17432	192.92395	202.72284	193.17772	57.86569	
81	0.800	199.57585	194.16655	192.94817	202.71432	193.16766	57.86730	
82	0.810	199.57816	194.18158	192.96364	202.69797	193.18575	57.88545	
83	0.820	199.58191	194.16245	192.94101	202.71382	193.20575	57.88065	
84	0.830	199.56023	194.17137	192.92967	202.70306	193.15433	57.86944	
85	0.840	199.60101	194.16992	192.92830	202.70970	193.17278	57.87244	
86	0.850	199.58583	194.17731	192.90996	202.69186	193.14110	57.87156	
87	0.860	199.60895	194.16295	192.90598	202.68336	193.13649	57.86536	
88	0.870	199.58426	194.16483	192.91425	202.71150	193.16434	57.86783	
89	0.880	199.59773	194.17160	192.90471	202.67081	193.16438	57.89494	
90	0.890	199.58398	194.16890	192.90399	202.69464	193.18044	57.87806	
91	0.900	199.60489	194.18269	192.93121	202.68625	193.13580	57.87067	
92	0.910	199.63463	194.16425	192.93184	202.66412	193.10831	57.87680	
93	0.920	199.59015	194.17070	192.92055	202.68892	193.14305	57.86430	
94	0.930	199.61719	194.17012	192.94705	202.69464	193.14439	57.87102	
95	0.940	199.59210	194.17825	192.91222	202.69170	193.14771	57.86181	
96	0.950	199.60246	194.18480	192.93303	202.68591	193.14900	57.85125	
97	0.960	199.62737	194.17618	192.92213	202.72284	193.17772	57.86569	
98	0.970	199.60719	194.17088	192.93051	202.68886	193.14569	57.86043	
99	0.980	199.60985	194.16113	192.90999	202.70868	193.16100	57.86836	
100	0.990	199.60678	194.16837	192.93028	202.72284	193.17772	57.86569	
101	1.000	199.60713	194.17561	192.92004	202.70868	193.16100	57.86836	
102	1.010	199.61292	194.18770	192.95041	202.71432	193.16766	57.86730	
103	1.020	199.61600	194.16008	192.91154	202.72284	193.17772	57.86569	
104	1.030	199.64014	194.16592	192.93004	202.67654	193.18753	57.88039	
105	1.040	199.63847	194.16566	192.92815	202.69464	193.14439	57.87102	
106	1.050	199.57416	194.15228	192.92401	202.69328	193.15082	57.85974	
107	1.060	199.59464	194.16393	192.91660	202.69452	193.14969	57.86322	
108	1.070	199.62698	194.17329	192.92589	202.71150	193.16434	57.86783	
109	1.080	199.61432	194.15981	192.90964	202.71716	193.17102	57.86676	
110	1.090	199.59377	194.15549	192.91457	202.68605	193.14374	57.85901	
111	1.100	199.59261	194.16545	192.90155	202.72284	193.17772	57.86569	
112	1.110	199.57341	194.16237	192.89738	202.72284	193.17772	57.86569	
113	1.120	199.56172	194.17401	192.92641	202.72284	193.17772	57.86569	
114	1.130	199.59039	194.16240	192.91498	202.71432	193.16766	57.86730	
115	1.140	199.55746	194.16096	192.91766	202.69167	193.14902	57.85988	
